<?xml version="1.0" encoding="UTF-8"?>
<svg width="192px" height="46px" viewBox="0 0 192 46" version="1.1" xmlns="http://www.w3.org/2000/svg" xmlns:xlink="http://www.w3.org/1999/xlink">
    <title>Dark_Logo_svg</title>
    <defs>
        <path d="M42.7192982,3 L42.7192982,40.7152672 C42.7192982,41.2185751 42.7582846,41.6343511 42.8362573,41.9625954 C42.91423,42.2908397 43.0409357,42.5534351 43.2163743,42.7503817 C43.3918129,42.9473282 43.625731,43.0950382 43.9181287,43.1935115 C44.1520468,43.2722901 44.4296296,43.3405649 44.7508772,43.3983359 L45,43.4396947 L44.619883,46 C42.9434698,45.9562341 41.754386,45.5513995 41.0526316,44.7854962 C40.3976608,44.0706531 40.0483431,42.9840916 40.0046784,41.5258117 L40,41.2076336 L40,25 L28.9971769,25 L20.2317995,38.4318928 L17.3441769,37.7302278 L39.6366015,3.63430061 L39.9991769,3.869 L40,3 L42.7192982,3 Z M40,23 L39.9991769,8.143 L30.3021769,23 L40,23 Z" id="path-1"></path>
        <filter x="-7.2%" y="-4.7%" width="114.5%" height="109.3%" filterUnits="objectBoundingBox" id="filter-2">
            <feGaussianBlur stdDeviation="1.5" in="SourceAlpha" result="shadowBlurInner1"></feGaussianBlur>
            <feOffset dx="0" dy="1" in="shadowBlurInner1" result="shadowOffsetInner1"></feOffset>
            <feComposite in="shadowOffsetInner1" in2="SourceAlpha" operator="arithmetic" k2="-1" k3="1" result="shadowInnerInner1"></feComposite>
            <feColorMatrix values="0 0 0 0 0   0 0 0 0 0   0 0 0 0 0  0 0 0 0.6 0" type="matrix" in="shadowInnerInner1"></feColorMatrix>
        </filter>
        <polygon id="path-3" points="5.41730107 9.41826036 10.6073801 9.42518756 10.6115364 12.5419359 5.42145739 12.5350087"></polygon>
        <filter x="-38.5%" y="-64.0%" width="177.0%" height="228.1%" filterUnits="objectBoundingBox" id="filter-4">
            <feGaussianBlur stdDeviation="1.5" in="SourceAlpha" result="shadowBlurInner1"></feGaussianBlur>
            <feOffset dx="0" dy="1" in="shadowBlurInner1" result="shadowOffsetInner1"></feOffset>
            <feComposite in="shadowOffsetInner1" in2="SourceAlpha" operator="arithmetic" k2="-1" k3="1" result="shadowInnerInner1"></feComposite>
            <feColorMatrix values="0 0 0 0 0   0 0 0 0 0   0 0 0 0 0  0 0 0 0.6 0" type="matrix" in="shadowInnerInner1"></feColorMatrix>
        </filter>
        <path d="M3.72764021,7.4760796 L6.31817815,7.47953719 C7.75374164,7.48145324 8.91701765,8.6447306 8.91893204,10.0802941 L8.91893204,10.0802941 L8.91893204,10.0802941 L1.13381352,10.0699033 C1.13190573,8.63928181 2.290107,7.47798739 3.72072847,7.4760796 C3.72303238,7.47607652 3.7253363,7.47607652 3.72764021,7.4760796 Z" id="path-5"></path>
        <filter x="-25.6%" y="-76.6%" width="151.3%" height="253.3%" filterUnits="objectBoundingBox" id="filter-6">
            <feGaussianBlur stdDeviation="1.5" in="SourceAlpha" result="shadowBlurInner1"></feGaussianBlur>
            <feOffset dx="0" dy="1" in="shadowBlurInner1" result="shadowOffsetInner1"></feOffset>
            <feComposite in="shadowOffsetInner1" in2="SourceAlpha" operator="arithmetic" k2="-1" k3="1" result="shadowInnerInner1"></feComposite>
            <feColorMatrix values="0 0 0 0 0   0 0 0 0 0   0 0 0 0 0  0 0 0 0.6 0" type="matrix" in="shadowInnerInner1"></feColorMatrix>
        </filter>
        <path d="M51.1594722,39.9011407 L51.5839857,37.3307985 C51.1050473,37.2648923 50.7023037,37.1825095 50.3757549,37.0836502 C50.049206,36.9847909 49.7879669,36.8365019 49.5920376,36.6387833 C49.3961083,36.4410646 49.2546037,36.1774398 49.167524,35.8479087 C49.0804443,35.5183777 49.0369045,35.1009717 49.0369045,34.5956907 L49.0369045,34.5956907 L49.0369045,14 L46,14.5272497 L46,35.0899873 C46,36.7156738 46.3918586,37.91297 47.1755759,38.6818758 C47.9592932,39.4507816 49.2872586,39.8572032 51.1594722,39.9011407 L51.1594722,39.9011407 Z M60.3681503,39.9340938 C61.043018,39.9340938 61.7233281,39.9066329 62.4090807,39.851711 C63.0948334,39.7967892 63.7316037,39.7363752 64.3193916,39.6704689 C64.9071796,39.6045627 65.4351003,39.5331643 65.9031537,39.4562738 C66.371207,39.3793832 66.7358533,39.3189692 66.9970924,39.2750317 L66.9970924,39.2750317 L66.9970924,28.5652725 C66.9970924,27.5986481 66.8882427,26.7144064 66.6705435,25.9125475 C66.4528443,25.1106886 66.088198,24.4186734 65.5766048,23.8365019 C65.0650116,23.2543304 64.3901439,22.8039713 63.5520018,22.4854246 C62.7138597,22.1668779 61.6852307,22.0076046 60.466115,22.0076046 C59.3993887,22.0076046 58.4088571,22.0899873 57.4945202,22.2547529 C56.5801834,22.4195184 55.9270857,22.5897761 55.535227,22.765526 L55.535227,22.765526 L55.8944308,25.3029151 C56.2645195,25.1491339 56.8250951,25.000845 57.5761575,24.8580482 C58.3272199,24.7152514 59.2034593,24.643853 60.2048759,24.643853 C60.9885932,24.643853 61.6253635,24.7591888 62.1151868,24.9898606 C62.6050101,25.2205323 62.9914262,25.5280946 63.2744352,25.9125475 C63.5574443,26.2970004 63.7533736,26.7363752 63.8622232,27.2306717 C63.9710728,27.7249683 64.0254977,28.2247571 64.0254977,28.730038 L64.0254977,28.730038 L64.0254977,29.5868188 C63.938418,29.56485 63.7860285,29.5318969 63.5683292,29.4879594 C63.35063,29.444022 63.0948334,29.3945923 62.8009394,29.3396705 C62.5070454,29.2847486 62.196824,29.2408112 61.8702751,29.207858 C61.5437262,29.1749049 61.2280623,29.1584284 60.9232834,29.1584284 C59.9654067,29.1584284 59.0510699,29.2572877 58.1802729,29.4550063 C57.3094759,29.652725 56.5475285,29.9602873 55.8944308,30.3776933 C55.241333,30.7950993 54.7242973,31.3443177 54.3433236,32.0253485 C53.96235,32.7063794 53.7718631,33.5192226 53.7718631,34.4638783 C53.7718631,35.4524715 53.9351376,36.2982678 54.2616864,37.0012674 C54.5882353,37.704267 55.0454037,38.269962 55.6331917,38.6983523 C56.2209796,39.1267427 56.9176172,39.4397972 57.7231045,39.6375158 C58.5285917,39.8352345 59.4102736,39.9340938 60.3681503,39.9340938 Z M60.7273541,37.3637516 C59.5300082,37.3637516 58.5830165,37.1495564 57.8863789,36.721166 C57.1897413,36.2927757 56.8414225,35.5293621 56.8414225,34.4309252 C56.8414225,33.8377693 56.982927,33.3599493 57.265936,32.9974651 C57.5489451,32.634981 57.9027063,32.3493874 58.3272199,32.1406844 C58.7517334,31.9319814 59.2197868,31.7946768 59.73138,31.7287706 C60.2429732,31.6628644 60.7273541,31.6299113 61.1845225,31.6299113 C61.8811601,31.6299113 62.4743905,31.6683566 62.9642138,31.7452471 C63.4540371,31.8221377 63.8077984,31.9155049 64.0254977,32.0253485 L64.0254977,32.0253485 L64.0254977,37.1330798 C63.6554089,37.2209548 63.192798,37.2813688 62.637665,37.3143219 C62.0825319,37.347275 61.4457616,37.3637516 60.7273541,37.3637516 Z M75.0628495,39.5716096 L75.0628495,25.1711027 C75.2370089,25.1271652 75.6016551,25.0447824 76.1567882,24.9239544 C76.7119213,24.8031263 77.2724968,24.7427123 77.8385149,24.7427123 C78.7093119,24.7427123 79.4222769,24.8031263 79.97741,24.9239544 C80.5325431,25.0447824 80.9298442,25.1491339 81.1693134,25.2370089 L81.1693134,25.2370089 L81.6917915,22.5678074 C81.561172,22.5238699 81.3598002,22.4744402 81.0876761,22.4195184 C80.8155521,22.3645965 80.5162156,22.3096747 80.1896667,22.2547529 C79.8631179,22.199831 79.5311265,22.1558935 79.1936927,22.1229404 C78.8562589,22.0899873 78.5569224,22.0735108 78.2956833,22.0735108 C76.9677179,22.0735108 75.770372,22.1888466 74.7036457,22.4195184 C73.6369194,22.6501901 72.7443525,22.8973384 72.025945,23.1609632 L72.025945,23.1609632 L72.025945,39.5716096 L75.0628495,39.5716096 Z M87.6676359,39.5716096 L87.6676359,25.1051965 C87.7547156,25.0832277 87.928875,25.0502746 88.1901141,25.0063371 C88.4513532,24.9623997 88.7398047,24.9239544 89.0554686,24.8910013 C89.3711325,24.8580482 89.7031238,24.8305872 90.0514426,24.8086185 C90.3997614,24.7866498 90.7263103,24.7756654 91.0310892,24.7756654 C91.7494968,24.7756654 92.3427272,24.8910013 92.8107806,25.121673 C93.278834,25.3523447 93.6489227,25.7093367 93.9210467,26.1926489 C94.1931708,26.6759611 94.3836576,27.2801014 94.4925073,28.0050697 C94.6013569,28.730038 94.6557817,29.5978031 94.6557817,30.608365 L94.6557817,30.608365 L94.6557817,39.5716096 L97.6926862,39.5716096 L97.6926862,29.9493029 C97.6926862,29.2023659 97.6491464,28.4883819 97.5620667,27.8073511 C97.474987,27.1263202 97.3443674,26.5002112 97.170208,25.9290241 C97.4096772,25.7093367 97.8614031,25.4621884 98.5253858,25.1875792 C99.1893685,24.91297 100.032953,24.7756654 101.05614,24.7756654 C101.796317,24.7756654 102.400432,24.8910013 102.868486,25.121673 C103.336539,25.3523447 103.706628,25.7093367 103.978752,26.1926489 C104.250876,26.6759611 104.43592,27.2801014 104.533885,28.0050697 C104.63185,28.730038 104.680832,29.5978031 104.680832,30.608365 L104.680832,30.608365 L104.680832,39.5716096 L107.717737,39.5716096 L107.717737,29.9493029 C107.717737,28.8069286 107.636099,27.7524292 107.472825,26.7858048 C107.30955,25.8191804 106.993887,24.9843684 106.525833,24.2813688 C106.05778,23.5783692 105.410125,23.034643 104.582867,22.6501901 C103.75561,22.2657372 102.688884,22.0735108 101.382688,22.0735108 C100.707821,22.0735108 100.076493,22.1449092 99.488705,22.287706 C98.900917,22.4305027 98.3675539,22.5952683 97.8886155,22.7820025 C97.4096772,22.9687368 97.0069336,23.1609632 96.6803847,23.3586819 C96.3538358,23.5564005 96.1143667,23.7101817 95.9619772,23.8200253 C95.4612689,23.2488382 94.8408261,22.8149556 94.1006486,22.5183777 C93.3604712,22.2217997 92.4461343,22.0735108 91.3576381,22.0735108 C89.8555133,22.0735108 88.5329904,22.1723701 87.3900693,22.3700887 C86.2471483,22.5678074 85.327369,22.7545416 84.6307314,22.9302915 L84.6307314,22.9302915 L84.6307314,39.5716096 L87.6676359,39.5716096 Z M139.752181,39.9011407 L140.176694,37.3307985 C139.697756,37.2648923 139.295012,37.1825095 138.968463,37.0836502 C138.641915,36.9847909 138.380675,36.8365019 138.184746,36.6387833 C137.988817,36.4410646 137.847312,36.1774398 137.760233,35.8479087 C137.673153,35.5183777 137.629613,35.1009717 137.629613,34.5956907 L137.629613,34.5956907 L137.629613,14 L134.592709,14.5272497 L134.592709,35.0899873 C134.592709,36.7156738 134.984567,37.91297 135.768285,38.6818758 C136.552002,39.4507816 137.879967,39.8572032 139.752181,39.9011407 L139.752181,39.9011407 Z M150.593603,40 C151.747409,40 152.814136,39.7858048 153.793782,39.3574144 C154.773429,38.9290241 155.617013,38.3193916 156.324536,37.5285171 C157.032058,36.7376426 157.581749,35.7929869 157.973608,34.6945501 C158.365466,33.5961132 158.561396,32.365864 158.561396,31.0038023 C158.561396,29.6637093 158.365466,28.4389523 157.973608,27.3295311 C157.581749,26.2201098 157.032058,25.269962 156.324536,24.4790875 C155.617013,23.6882129 154.773429,23.0785805 153.793782,22.6501901 C152.814136,22.2217997 151.747409,22.0076046 150.593603,22.0076046 C149.439797,22.0076046 148.373071,22.2217997 147.393424,22.6501901 C146.413778,23.0785805 145.570193,23.6882129 144.862671,24.4790875 C144.155148,25.269962 143.605457,26.2201098 143.213599,27.3295311 C142.82174,28.4389523 142.625811,29.6637093 142.625811,31.0038023 C142.625811,32.365864 142.82174,33.5961132 143.213599,34.6945501 C143.605457,35.7929869 144.155148,36.7376426 144.862671,37.5285171 C145.570193,38.3193916 146.413778,38.9290241 147.393424,39.3574144 C148.373071,39.7858048 149.439797,40 150.593603,40 Z M150.593603,37.2978454 C149.113248,37.2978454 147.943115,36.7321504 147.083203,35.6007605 C146.223291,34.4693705 145.793335,32.9370511 145.793335,31.0038023 C145.793335,29.0705534 146.223291,27.5382341 147.083203,26.4068441 C147.943115,25.2754542 149.113248,24.7097592 150.593603,24.7097592 C152.073958,24.7097592 153.244092,25.2754542 154.104004,26.4068441 C154.963916,27.5382341 155.393872,29.0705534 155.393872,31.0038023 C155.393872,32.9370511 154.963916,34.4693705 154.104004,35.6007605 C153.244092,36.7321504 152.073958,37.2978454 150.593603,37.2978454 Z M170.21919,39.9670469 C170.654589,39.9670469 171.106315,39.939586 171.574368,39.8846641 C172.042422,39.8297423 172.483263,39.7638361 172.896891,39.6869455 C173.31052,39.6100549 173.680608,39.52218 174.007157,39.4233207 C174.333706,39.3244613 174.58406,39.2201098 174.75822,39.1102662 L174.75822,39.1102662 L174.333706,36.539924 C173.963617,36.7156738 173.452024,36.8804394 172.798926,37.0342205 C172.145829,37.1880017 171.416536,37.2648923 170.611049,37.2648923 C169.609632,37.2648923 168.760605,37.1166033 168.063968,36.8200253 C167.36733,36.5234474 166.79587,36.1005492 166.349586,35.5513308 C165.903303,35.0021124 165.576754,34.3430503 165.36994,33.5741445 C165.163125,32.8052387 165.059718,31.9594423 165.059718,31.0367554 C165.059718,28.9716941 165.511444,27.4009294 166.414896,26.3244613 C167.318348,25.2479932 168.619101,24.7097592 170.317155,24.7097592 C170.992023,24.7097592 171.628793,24.7756654 172.227466,24.9074778 C172.826139,25.0392902 173.354059,25.2150401 173.811228,25.4347275 L173.811228,25.4347275 L174.496981,22.8314322 C173.800343,22.5458386 173.07105,22.3371356 172.309103,22.2053232 C171.547156,22.0735108 170.785208,22.0076046 170.023261,22.0076046 C168.782375,22.0076046 167.655782,22.2327841 166.64348,22.6831432 C165.631179,23.1335023 164.776709,23.7596113 164.080072,24.5614702 C163.383434,25.3633291 162.844628,26.313477 162.463655,27.4119138 C162.082681,28.5103507 161.892194,29.7186312 161.892194,31.0367554 C161.892194,32.3548796 162.066354,33.5576679 162.414672,34.6451204 C162.762991,35.7325729 163.290912,36.6717364 163.998434,37.4626109 C164.705957,38.2534854 165.576754,38.8686101 166.610825,39.3079848 C167.644897,39.7473595 168.847685,39.9670469 170.21919,39.9670469 Z M181.060613,39.5716096 L181.060613,31.3333333 C181.670171,31.7507393 182.312384,32.2670046 182.987251,32.8821293 C183.662119,33.4972539 184.326102,34.1727926 184.979199,34.9087452 C185.632297,35.6446979 186.258182,36.4136037 186.856855,37.2154626 C187.455528,38.0173215 187.983449,38.8027038 188.440617,39.5716096 L188.440617,39.5716096 L192,39.5716096 C191.564602,38.8027038 191.031238,37.973384 190.399911,37.0836502 C189.768583,36.1939163 189.099158,35.3151669 188.391635,34.4474018 C187.684112,33.5796367 186.965705,32.7722856 186.236412,32.0253485 C185.50712,31.2784115 184.815925,30.6523025 184.162827,30.1470215 C184.728845,29.5538657 185.332961,28.9222645 185.975173,28.252218 C186.617386,27.5821715 187.254156,26.9121251 187.885484,26.2420786 C188.516812,25.5720321 189.12637,24.9074778 189.714158,24.2484157 C190.301946,23.5893536 190.846194,22.9852134 191.346902,22.4359949 L191.346902,22.4359949 L187.78752,22.4359949 C187.395661,22.8973384 186.927608,23.4300803 186.383359,24.0342205 C185.839111,24.6383608 185.262208,25.269962 184.65265,25.9290241 C184.043093,26.5880862 183.42265,27.2361639 182.791322,27.8732573 L182.791322,27.8732573 L181.060613,29.6197719 L181.060613,14 L178.023708,14.5272497 L178.023708,39.5716096 L181.060613,39.5716096 Z" id="path-7"></path>
        <filter x="-1.4%" y="-7.7%" width="102.7%" height="115.4%" filterUnits="objectBoundingBox" id="filter-8">
            <feGaussianBlur stdDeviation="1.5" in="SourceAlpha" result="shadowBlurInner1"></feGaussianBlur>
            <feOffset dx="0" dy="1" in="shadowBlurInner1" result="shadowOffsetInner1"></feOffset>
            <feComposite in="shadowOffsetInner1" in2="SourceAlpha" operator="arithmetic" k2="-1" k3="1" result="shadowInnerInner1"></feComposite>
            <feColorMatrix values="0 0 0 0 0   0 0 0 0 0   0 0 0 0 0  0 0 0 0.5957441 0" type="matrix" in="shadowInnerInner1"></feColorMatrix>
        </filter>
        <path d="M123.962756,41 C125.162011,41 126.275605,40.9263352 127.303538,40.7790055 C128.331471,40.6316759 129.230912,40.4548803 130.001862,40.2486188 C130.772812,40.0423573 131.41527,39.8287293 131.929236,39.6077348 C132.443203,39.3867403 132.800124,39.2025783 133,39.0552486 L131.929236,35.519337 C131.301055,35.8434622 130.358783,36.2117864 129.102421,36.6243094 C127.846058,37.0368324 126.261328,37.2430939 124.348231,37.2430939 C122.692117,37.2430939 121.243017,36.9484346 120.000931,36.359116 C118.758845,35.7697974 117.723774,34.9373849 116.895717,33.8618785 C116.06766,32.786372 115.446617,31.4972376 115.032588,29.9944751 C114.61856,28.4917127 114.411546,26.8268877 114.411546,25 C114.411546,23.1141805 114.647114,21.412523 115.11825,19.8950276 C115.589385,18.3775322 116.267536,17.0883978 117.1527,16.0276243 C118.037865,14.9668508 119.108628,14.1565378 120.364991,13.5966851 C121.621353,13.0368324 123.034761,12.7569061 124.605214,12.7569061 C125.34761,12.7569061 126.082868,12.8232044 126.810987,12.9558011 C127.539106,13.0883978 128.210118,13.2578269 128.824022,13.4640884 C129.437927,13.6703499 129.987585,13.8766114 130.472998,14.0828729 C130.958411,14.2891344 131.329609,14.480663 131.586592,14.6574586 L132.785847,11.121547 C132.614525,11.0036832 132.300435,10.8268877 131.843575,10.5911602 C131.386716,10.3554328 130.794227,10.1197053 130.066108,9.8839779 C129.337989,9.64825046 128.481378,9.44198895 127.496276,9.26519337 C126.511173,9.08839779 125.404718,9 124.176909,9 C122.235258,9 120.407821,9.35359116 118.6946,10.0607735 C116.981378,10.7679558 115.482309,11.7992634 114.197393,13.1546961 C112.912477,14.5101289 111.891682,16.1823204 111.135009,18.1712707 C110.378336,20.160221 110,22.4364641 110,25 C110,27.5635359 110.335506,29.839779 111.006518,31.8287293 C111.677529,33.8176796 112.62694,35.4898711 113.854749,36.8453039 C115.082557,38.2007366 116.553073,39.2320442 118.266294,39.9392265 C119.979516,40.6464088 121.878336,41 123.962756,41 Z" id="path-9"></path>
        <filter x="-8.7%" y="-6.2%" width="117.4%" height="112.5%" filterUnits="objectBoundingBox" id="filter-10">
            <feGaussianBlur stdDeviation="1.5" in="SourceAlpha" result="shadowBlurInner1"></feGaussianBlur>
            <feOffset dx="0" dy="1" in="shadowBlurInner1" result="shadowOffsetInner1"></feOffset>
            <feComposite in="shadowOffsetInner1" in2="SourceAlpha" operator="arithmetic" k2="-1" k3="1" result="shadowInnerInner1"></feComposite>
            <feColorMatrix values="0 0 0 0 0   0 0 0 0 0   0 0 0 0 0  0 0 0 0.6 0" type="matrix" in="shadowInnerInner1"></feColorMatrix>
        </filter>
        <path d="M21.7389681,10 C24.9604631,10 27.8788735,11.3128426 30,13.4385464 L30,13.4385464 L24.275,22.483 L15.2111144,16.1145563 L14.5010249,17.1321485 L23.61,23.532 L17.6174085,33 C13.2600115,31.3467291 10.1325276,27.1479676 10.004107,22.1935652 L10,21.8763178 C10,15.3172086 15.2557151,10 21.7389681,10 Z" id="path-11"></path>
        <filter x="-10.0%" y="-8.7%" width="120.0%" height="117.4%" filterUnits="objectBoundingBox" id="filter-12">
            <feGaussianBlur stdDeviation="1.5" in="SourceAlpha" result="shadowBlurInner1"></feGaussianBlur>
            <feOffset dx="0" dy="1" in="shadowBlurInner1" result="shadowOffsetInner1"></feOffset>
            <feComposite in="shadowOffsetInner1" in2="SourceAlpha" operator="arithmetic" k2="-1" k3="1" result="shadowInnerInner1"></feComposite>
            <feColorMatrix values="0 0 0 0 0   0 0 0 0 0   0 0 0 0 0  0 0 0 0.6 0" type="matrix" in="shadowInnerInner1"></feColorMatrix>
        </filter>
        <path d="M23.9799375,0 C26.7361694,0 29.0871393,2.07931793 30.0001145,5.00036635 C28.070872,4.20205042 25.9992673,3.76870783 23.8432034,3.76870783 C21.8041147,3.76870783 19.8405691,4.15630484 18.0010718,4.87337229 C18.9415391,2.01898532 21.2639867,0 23.9799375,0 Z" id="path-13"></path>
        <filter x="-16.7%" y="-40.0%" width="133.3%" height="180.0%" filterUnits="objectBoundingBox" id="filter-14">
            <feGaussianBlur stdDeviation="1.5" in="SourceAlpha" result="shadowBlurInner1"></feGaussianBlur>
            <feOffset dx="0" dy="1" in="shadowBlurInner1" result="shadowOffsetInner1"></feOffset>
            <feComposite in="shadowOffsetInner1" in2="SourceAlpha" operator="arithmetic" k2="-1" k3="1" result="shadowInnerInner1"></feComposite>
            <feColorMatrix values="0 0 0 0 0   0 0 0 0 0   0 0 0 0 0  0 0 0 0.6 0" type="matrix" in="shadowInnerInner1"></feColorMatrix>
        </filter>
        <path d="M4.99353828,28.1091044 C7.61373622,28.1091044 9.84868811,29.7539178 10.716705,32.0646058 C8.88228497,31.4332468 6.91305461,31.0905059 4.86354794,31.0905059 C2.92476923,31.0905059 1.05782704,31.3972129 -0.691147527,31.964625 C0.20275059,29.7069492 2.41102186,28.1091044 4.99353828,28.1091044 Z" id="path-15"></path>
        <filter x="-17.5%" y="-50.6%" width="135.1%" height="201.1%" filterUnits="objectBoundingBox" id="filter-16">
            <feGaussianBlur stdDeviation="1.5" in="SourceAlpha" result="shadowBlurInner1"></feGaussianBlur>
            <feOffset dx="0" dy="1" in="shadowBlurInner1" result="shadowOffsetInner1"></feOffset>
            <feComposite in="shadowOffsetInner1" in2="SourceAlpha" operator="arithmetic" k2="-1" k3="1" result="shadowInnerInner1"></feComposite>
            <feColorMatrix values="0 0 0 0 0   0 0 0 0 0   0 0 0 0 0  0 0 0 0.6 0" type="matrix" in="shadowInnerInner1"></feColorMatrix>
        </filter>
    </defs>
    <g id="Page-1" stroke="none" stroke-width="1" fill="none" fill-rule="evenodd">
        <g id="White_Desktop" transform="translate(-124.000000, -18.000000)">
            <g id="Header" transform="translate(124.000000, 0.000000)">
                <g id="Dark_Logo" transform="translate(0.000000, 18.000000)">
                    <g id="Shape">
                        <use fill="#FFFFFF" fill-rule="evenodd" xlink:href="#path-1"></use>
                        <use fill="black" fill-opacity="1" filter="url(#filter-2)" xlink:href="#path-1"></use>
                    </g>
                    <g id="Rectangle" transform="translate(8.014419, 10.980098) rotate(-54.000000) translate(-8.014419, -10.980098) ">
                        <use fill="#FFFFFF" fill-rule="evenodd" xlink:href="#path-3"></use>
                        <use fill="black" fill-opacity="1" filter="url(#filter-4)" xlink:href="#path-3"></use>
                    </g>
                    <g id="Rectangle" transform="translate(5.024641, 8.776454) rotate(-54.000000) translate(-5.024641, -8.776454) ">
                        <use fill="#FFFFFF" fill-rule="evenodd" xlink:href="#path-5"></use>
                        <use fill="black" fill-opacity="1" filter="url(#filter-6)" xlink:href="#path-5"></use>
                    </g>
                    <g id="larmClock" fill-rule="nonzero">
                        <use fill="#FFFFFF" xlink:href="#path-7"></use>
                        <use fill="black" fill-opacity="1" filter="url(#filter-8)" xlink:href="#path-7"></use>
                    </g>
                    <g id="Path" fill-rule="nonzero">
                        <use fill="#FFFFFF" xlink:href="#path-9"></use>
                        <use fill="black" fill-opacity="1" filter="url(#filter-10)" xlink:href="#path-9"></use>
                    </g>
                    <g id="Combined-Shape">
                        <use fill="#FFFFFF" fill-rule="evenodd" xlink:href="#path-11"></use>
                        <use fill="black" fill-opacity="1" filter="url(#filter-12)" xlink:href="#path-11"></use>
                    </g>
                    <path d="M22.0215038,5 C26.6926715,5 30.9243665,6.88364375 34,9.93356658 L34,9.93356658 L33.2250538,11.1559626 L33.2250538,11.1559626 L33.0605816,10.9919826 C33.009801,10.9415086 32.9577553,10.8899125 32.9044444,10.8371942 C30.0611921,8.02554659 26.1492252,6.2890625 21.8309902,6.2890625 C13.1405496,6.2890625 6.09555556,13.3220823 6.09555556,21.9977519 C6.09555556,28.7326614 10.3411465,34.4776454 16.3062685,36.7109375 C16.4547262,36.7665188 16.6094053,36.8184714 16.7703058,36.8667953 L16.0452424,38 C9.59258638,35.5774458 5,29.3455988 5,22.0399343 C5,12.6290384 12.6207868,5 22.0215038,5 Z" id="Combined-Shape" fill="#727272"></path>
                    <g id="Combined-Shape">
                        <use fill="#FFFFFF" fill-rule="evenodd" xlink:href="#path-13"></use>
                        <use fill="black" fill-opacity="1" filter="url(#filter-14)" xlink:href="#path-13"></use>
                    </g>
                    <g id="Combined-Shape" transform="translate(5.012987, 30.086855) rotate(-117.000000) translate(-5.012987, -30.086855) ">
                        <use fill="#FFFFFF" fill-rule="evenodd" xlink:href="#path-15"></use>
                        <use fill="black" fill-opacity="1" filter="url(#filter-16)" xlink:href="#path-15"></use>
                    </g>
                    <path d="M48.2586528,12.5925926 L48.2586528,6.62768031 C48.5452177,6.09746589 49.0089319,5.83235867 49.6497953,5.83235867 C50.1135095,5.83235867 50.4417566,5.94152047 50.6345367,6.15984405 C50.8273167,6.37816764 50.9237067,6.73164392 50.9237067,7.2202729 L50.9237067,7.2202729 L50.9237067,12.5925926 L53.1823595,12.5925926 L53.1745441,6.79922027 C53.4350577,6.15464587 53.9039821,5.83235867 54.5813175,5.83235867 C55.0554522,5.83235867 55.3863044,5.94282001 55.5738742,6.16374269 C55.761444,6.38466537 55.8552289,6.73424301 55.8552289,7.21247563 L55.8552289,7.21247563 L55.8552289,12.5925926 L58.1216971,12.5925926 L58.1216971,7.20467836 C58.1216971,6.13385315 57.8976554,5.33203379 57.449572,4.79922027 C57.0014886,4.26640676 56.3189431,4 55.4019352,4 C54.3025679,4 53.4558988,4.4288499 52.8619278,5.28654971 C52.4555266,4.4288499 51.7078526,4 50.6189058,4 C49.5976926,4 48.7874953,4.36647173 48.1883141,5.0994152 L48.1883141,5.0994152 L48.1179754,4.15594542 L46,4.15594542 L46,12.5925926 L48.2586528,12.5925926 Z M60.9117975,16 C62.0736881,16 62.9073316,15.4489929 63.4127279,14.3469786 L63.4127279,14.3469786 L63.6002977,13.9025341 L67,4.15594542 L64.5772237,4.15594542 L63.0141422,9.40350877 L61.4432453,4.15594542 L59.0126535,4.15594542 L61.974693,12.6159844 L61.7089691,13.3099415 C61.5891329,13.611436 61.4237067,13.8271605 61.2126907,13.957115 C61.0016747,14.0870695 60.6825456,14.1520468 60.2553033,14.1520468 L60.2553033,14.1520468 L59.9114254,14.1442495 L59.9114254,15.8518519 C60.250093,15.9506173 60.5835504,16 60.9117975,16 Z" id="my" fill="#727272" fill-rule="nonzero"></path>
                </g>
            </g>
        </g>
    </g>
</svg>